<?xml version="1.0" encoding="UTF-8" standalone="no" ?>
<!DOCTYPE svg PUBLIC "-//W3C//DTD SVG 1.1//EN" "http://www.w3.org/Graphics/SVG/1.1/DTD/svg11.dtd">
<svg xmlns="http://www.w3.org/2000/svg" xmlns:xlink="http://www.w3.org/1999/xlink" version="1.1" width="1080" height="1080" viewBox="0 0 1080 1080" xml:space="preserve">
<desc>Created with Fabric.js 5.2.4</desc>
<defs>
</defs>
<g transform="matrix(1 0 0 1 540 540)" id="9fbd8c19-5e29-49f4-aa7f-96d736cb9378"  >
<rect style="stroke: none; stroke-width: 1; stroke-dasharray: none; stroke-linecap: butt; stroke-dashoffset: 0; stroke-linejoin: miter; stroke-miterlimit: 4; fill: rgb(255,255,255); fill-rule: nonzero; opacity: 1; visibility: hidden;" vector-effect="non-scaling-stroke"  x="-540" y="-540" rx="0" ry="0" width="1080" height="1080" />
</g>
<g transform="matrix(1 0 0 1 540 540)" id="803ec11b-7dd9-4dcd-a84d-29a39ec6e2ca"  >
</g>
<g transform="matrix(3.23 0 0 3.23 540 540)"  >
<g style=""   >
		<g transform="matrix(1 0 0 1 0 0)"  >
<path style="stroke: rgb(255,255,255); stroke-opacity: 0; stroke-width: 1; stroke-dasharray: none; stroke-linecap: butt; stroke-dashoffset: 0; stroke-linejoin: miter; stroke-miterlimit: 4; fill: rgb(2,6,23); fill-rule: nonzero; opacity: 1;" vector-effect="non-scaling-stroke"  transform=" translate(-166.95, -166.95)" d="M 0 166.952 C 0 74.747 74.747 0 166.952 0 C 259.157 0 333.904 74.747 333.905 166.952 C 333.905 259.157 259.15799999999996 333.904 166.95199999999997 333.905 C 74.74699999999997 333.905 -2.842170943040401e-14 259.15799999999996 -2.842170943040401e-14 166.95199999999997 z M 166.952 326.363 C 254.99200000000002 326.363 326.36199999999997 254.993 326.363 166.952 C 326.363 78.91199999999999 254.993 7.542000000000002 166.952 7.542000000000002 C 78.91199999999999 7.542000000000002 7.542000000000002 78.912 7.542000000000002 166.952 C 7.542000000000002 254.99200000000002 78.912 326.36199999999997 166.952 326.363 z" stroke-linecap="round" />
</g>
		<g transform="matrix(1 0 0 1 0 0)"  >
<ellipse style="stroke: rgb(255,255,255); stroke-opacity: 0; stroke-width: 0; stroke-dasharray: none; stroke-linecap: butt; stroke-dashoffset: 0; stroke-linejoin: miter; stroke-miterlimit: 4; fill: rgb(2,6,23); fill-rule: nonzero; opacity: 1;" vector-effect="non-scaling-stroke"  cx="0" cy="0" rx="160.27418187383762" ry="160.27418187383762" />
</g>
		<g transform="matrix(2.36 0 0 2.36 0 53.96)" id="text-0"  >
<path style="stroke: none; stroke-width: 1; stroke-dasharray: none; stroke-linecap: butt; stroke-dashoffset: 0; stroke-linejoin: miter; stroke-miterlimit: 4; fill: rgb(248,248,248); fill-rule: nonzero; opacity: 1;" vector-effect="non-scaling-stroke"  transform=" translate(-27.6, 17.15)" d="M 4.9 -34.9 L 21.1 -34.9 L 21.1 -9.05 Q 21.1 -6.85 20.38 -5.05 Q 19.65 -3.25 18.32 -2 Q 17 -0.75 15.15 -0.08 Q 13.3 0.6 11.1 0.6 L 11.1 0.6 Q 7.05 0.6 4.58 -1.58 Q 2.1 -3.75 1.4 -7.35 L 1.4 -7.35 L 5.2 -8.25 Q 5.7 -6 7.1 -4.58 Q 8.5 -3.15 11.2 -3.15 L 11.2 -3.15 Q 13.9 -3.15 15.4 -4.8 Q 16.9 -6.45 16.9 -9.8 L 16.9 -9.8 L 16.9 -31.2 L 4.9 -31.2 L 4.9 -34.9 Z M 34.35 0 L 30.15 0 L 30.15 -34.9 L 44.05 -34.9 Q 48.75 -34.9 51.27 -32.23 Q 53.8 -29.55 53.8 -24.9 L 53.8 -24.9 Q 53.8 -20.25 51.27 -17.57 Q 48.75 -14.9 44.05 -14.9 L 44.05 -14.9 L 34.35 -14.9 L 34.35 0 Z M 34.35 -31.2 L 34.35 -18.6 L 44.05 -18.6 Q 46.55 -18.6 47.92 -19.9 Q 49.3 -21.2 49.3 -23.6 L 49.3 -23.6 L 49.3 -26.2 Q 49.3 -28.6 47.92 -29.9 Q 46.55 -31.2 44.05 -31.2 L 44.05 -31.2 L 34.35 -31.2 Z" stroke-linecap="round" />
</g>
		<g transform="matrix(1.17 0 0 1.17 0 -51.69)" id="icon-0"  >
<path style="stroke: none; stroke-width: 1; stroke-dasharray: none; stroke-linecap: butt; stroke-dashoffset: 0; stroke-linejoin: miter; stroke-miterlimit: 4; fill: rgb(248,248,248); fill-rule: nonzero; opacity: 1;" vector-effect="non-scaling-stroke"  transform=" translate(-50, -50)" d="M 50 12.2 L 17.3 31.1 L 17.3 68.9 L 50 87.8 L 82.7 68.9 L 82.7 31.1 z M 32.1 37.4 L 50 16 L 67 37.4 z M 67.3 39.4 L 50 70.4 L 31.8 39.4 z M 48.1 71 L 20.4 66.5 L 30.2 40.6 z M 68.9 40.7 L 79.6 66.6 L 51.9 71.1 z M 69.2 37.1 L 52.6 16 L 79.6 31.6 z M 29.8 37.1 L 20.4 31.6 L 47.2 16.1 z M 28.8 38.8 L 19.3 63.8 L 19.3 33.3 z M 49 73.2 L 49 84.9 L 20.9 68.7 z M 51 73.2 L 79.1 68.7 L 51 84.9 z M 70.3 38.8 L 80.8 33.2 L 80.8 64.1 z" stroke-linecap="round" />
</g>
</g>
</g>
</svg>